<?xml version="1.0" encoding="UTF-8"?>
<svg id="Layer_2" data-name="Layer 2" xmlns="http://www.w3.org/2000/svg" viewBox="0 0 186 186">
    <defs>
        <style>
            .cls-1 {
            fill: none;
            }

            .cls-1, .cls-2 {
            stroke-width: 0px;
            }

            .cls-3 {
            fill: #d10010;
            stroke: #d10010;
            stroke-miterlimit: 10;
            }

            .cls-2 {
            fill: red;
            }
        </style>
    </defs>
    <g id="Layer_1-2" data-name="Layer 1">
        <g>
            <rect class="cls-1" width="186" height="186"/>
            <g>
                <path class="cls-2"
                      d="M81.61,185.98c.8-1.9,1.51-3.6,2.23-5.29,4.69-11.07,9.36-22.15,14.08-33.21.34-.8.31-1.44-.03-2.22-9.21-20.71-18.4-41.44-27.59-62.16-.17-.39-.31-.79-.52-1.3h1.17c13.07,0,26.15,0,39.22-.02.88,0,1.29.25,1.65,1.06,2.8,6.31,5.65,12.59,8.49,18.88.21.47.44.92.76,1.58.24-.5.42-.86.58-1.23,2.76-6.37,5.54-12.72,8.25-19.11.38-.9.84-1.19,1.81-1.19,12.64.04,25.28.02,37.92.02h1.35c-.31.77-.57,1.45-.86,2.12-14.18,33.6-28.37,67.19-42.52,100.8-.4.95-.86,1.28-1.89,1.28-14.22-.04-28.44-.02-42.66-.02-.42,0-.84,0-1.45,0Z"/>
                <path class="cls-3"
                      d="M15.03,81.86h37.24c2.64,6.04,5.28,12.1,8.01,18.34.95-2.21,1.84-4.27,2.72-6.34,1.6-3.75,3.21-7.51,4.78-11.27.23-.54.47-.82,1.13-.82,11.98.02,23.97.02,35.95.02.14,0,.28.02.53.05-.82,1.91-1.62,3.78-2.42,5.64-9.47,21.86-18.96,43.71-28.4,65.58-.45,1.05-.98,1.35-2.08,1.34-8.35-.05-16.71-.04-25.06,0-.8,0-1.17-.25-1.48-.97-10.19-23.54-20.4-47.07-30.6-70.6-.12-.28-.2-.57-.34-.96Z"/>
            </g>
            <g>
                <path class="cls-2"
                      d="M63,54.5c-7.44,0-13.5-6.06-13.5-13.5s6.06-13.5,13.5-13.5h60c7.44,0,13.5,6.06,13.5,13.5s-6.06,13.5-13.5,13.5h-60Z"/>
                <path class="cls-2"
                      d="M123,28c7.17,0,13,5.83,13,13s-5.83,13-13,13h-60c-7.17,0-13-5.83-13-13s5.83-13,13-13h60M123,27h-60c-7.73,0-14,6.27-14,14s6.27,14,14,14h60c7.73,0,14-6.27,14-14s-6.27-14-14-14h0Z"/>
            </g>
        </g>
    </g>
</svg>